<svg width="184" height="32" viewBox="0 0 184 32" fill="none" xmlns="http://www.w3.org/2000/svg">
<path d="M0.0800781 0H10.6401C16.8321 0 20.9601 4.176 20.9601 10.464C20.9601 16.752 16.8321 20.928 10.6401 20.928H5.84008V31.2H0.0800781V0ZM5.84008 15.408H10.4001C13.2801 15.408 15.2001 13.296 15.2001 10.464C15.2001 7.632 13.2801 5.52 10.4001 5.52H5.84008V15.408Z" fill="#BDE25B"/>
<path d="M28.6626 31.2V0H34.4226V31.2H28.6626Z" fill="#BDE25B"/>
<path d="M43.5332 0H54.0932C60.2852 0 64.4132 4.176 64.4132 10.464C64.4132 16.752 60.2852 20.928 54.0932 20.928H49.2932V31.2H43.5332V0ZM49.2932 15.408H53.8532C56.7332 15.408 58.6532 13.296 58.6532 10.464C58.6532 7.632 56.7332 5.52 53.8532 5.52H49.2932V15.408Z" fill="#BDE25B"/>
<path d="M72.5957 0H88.4357V5.52H78.3557V12.864H86.0357V18.384H78.3557V25.68H88.4357V31.2H72.5957V0Z" fill="#BDE25B"/>
<path d="M97.5332 31.2V0H103.293V25.44H116.013V31.2H97.5332Z" fill="#BDE25B"/>
<path d="M122.741 31.2V0H128.501V31.2H122.741Z" fill="#BDE25B"/>
<path d="M150.331 18.384L143.371 8.832V31.2H137.611V0H143.371L152.731 12.864V0H158.491V31.2H152.731V18.384H150.331Z" fill="#BDE25B"/>
<path d="M168.08 0H183.92V5.52H173.84V12.864H181.52V18.384H173.84V25.68H183.92V31.2H168.08V0Z" fill="#BDE25B"/>
</svg>
